<svg width="352" height="395" viewBox="0 0 352 395" fill="none" xmlns="http://www.w3.org/2000/svg">
<path d="M250.374 367.453C261.431 383.869 266.959 392.076 272.617 393.666C277.744 395.107 283.252 393.903 287.309 390.453C291.787 386.646 293.385 376.88 296.58 357.348L348.842 37.8548C351.544 21.3379 352.895 13.0794 350.259 8.25376C347.865 3.8694 343.56 0.855076 338.621 0.104512C333.185 -0.721603 325.886 3.37238 311.29 11.5604L28.9392 169.944C11.6774 179.626 3.0465 184.468 1.00073 189.978C-0.852958 194.97 -0.101052 200.558 3.00642 204.883C6.43586 209.656 16.0396 212.044 35.247 216.819L162.283 248.405C165.757 249.269 167.495 249.701 169.053 250.474C170.495 251.188 171.82 252.116 172.985 253.226C174.244 254.427 175.244 255.911 177.244 258.881L250.374 367.453Z" fill="white"/>
</svg>
